<?xml version="1.0" encoding="utf-8"?> <svg version="1.1" id="Layer_1" xmlns="http://www.w3.org/2000/svg" xmlns:xlink="http://www.w3.org/1999/xlink" x="0px" y="0px" viewBox="0 0 224.2 103.8" style="enable-background:new 0 0 224.2 103.8;" xml:space="preserve"> <style type="text/css"> .st0{fill:#FFCE54;} .st1{fill:#F6BB42;} </style> <path class="st0" d="M199.8,49.3c-9.6,4.9-21.9,11-35.1,17.1C115.4,89.3,97.3,93,90.9,93.2c-9.6,0.2-18.9-2.2-26.8-7.1l-2.8-1.7 l-50.2,1.5l3.1-64.6L59.9,21l2.7-1.8c7.7-5.3,16.8-8.2,26.4-8.4c6.4-0.2,24.7,2.7,75,23.3C177.3,39.3,190,44.9,199.8,49.3z"/> <path class="st1" d="M0,96.7L58.5,95c9.3,5.8,20.5,9.1,32.7,8.8c31-0.7,133-55,133-55S119.7-0.7,88.7,0c-12,0.3-23.2,4.2-32.2,10.3 L4.2,10.4L0,96.7z M56.6,31.7l6.6,0l5.4-3.8c6-4.1,13.1-6.3,20.6-6.6c2.5,0,17.6,0.7,70.6,22.4c5.1,2.1,10,4.1,14.7,6.2 c-4.6,2.2-9.4,4.5-14.4,6.8c-52,24.2-67,25.6-69.5,25.8C83.3,82.7,76,80.7,69.9,77l-5.5-3.4L58,73.8l-35.6,1.1l2-43L56.6,31.7z"/> </svg>