<?xml version="1.0" encoding="utf-8"?> <svg version="1.1" id="Layer_1" xmlns="http://www.w3.org/2000/svg" xmlns:xlink="http://www.w3.org/1999/xlink" x="0px" y="0px" viewBox="0 0 560.6 346.3" style="enable-background:new 0 0 560.6 346.3;" xml:space="preserve"> <style type="text/css"> .st0{fill:#FF7700;} .st1{fill:#E6E9ED;} .st2{fill:#5281D7;} .st3{fill:#CCD1D9;} </style> <g> <path class="st0" d="M515.7,95c-6.2-2.3-12.5-4.4-18.9-6.4L349.6,63.3c-6.8-0.3-13.6-0.4-20.4-0.4c-4,0-7.9,0-11.9,0.1 C357,24.3,417.7-0.3,485.9,0c22.7,0.2,44.6,3,65.1,8.1c0.1,0,0.9,0.2,0.9,0.2c4.4,1.3,7.6,5.4,7.6,10.2c0,1.6-0.4,3.1-1.1,4.5 c0,0-0.5,1.1-0.8,1.5l-40.5,71C516.7,95.3,516.2,95.2,515.7,95z"/> <path class="st0" d="M316.4,281.8c3.9,0.1,7.9,0.2,11.9,0.2c6.8,0,13.6,0,20.4-0.3c17.1,13,147.4-23.9,147.4-23.9 c6.4-2,12.7-4,19-6.3c0.5-0.2,1.1-0.3,1.6-0.6l39.9,71.4c0.3,0.4,0.8,1.5,0.8,1.5c0.6,1.3,1,2.8,1,4.5c0,4.8-3.2,8.8-7.7,10.1 c0,0-0.8,0.2-0.9,0.2c-20.6,5.1-42.5,7.7-65.2,7.6C416.3,346,355.7,320.9,316.4,281.8z"/> </g> <path class="st1" d="M324.3,288.8c85.4,0.4,165.1-17.2,229.7-47.1c3.5-1.7,6-5.3,6.1-9.5l0.5-117.2c0-4.2-2.4-7.9-6-9.6 C490.2,75,410.8,56.6,325.3,56.2C192.6,55.5,75.1,97.8,3.7,163c-2.1,2-3.6,4.9-3.7,8c0,3.1,1.5,6.1,3.6,8.1 C74.4,244.8,191.6,288.2,324.3,288.8z"/> <g> <path class="st2" d="M300.8,142.2c8,8.1,12.4,18.8,12.3,30.2c0,11.3-4.5,22-12.6,30.1c-8.1,8-18.8,12.4-30.2,12.3 c-11.3,0-22.1-4.6-30.1-12.6c-8-8.1-12.4-18.8-12.3-30.2c0.1-23.5,19.3-42.5,42.8-42.4C282.2,129.7,292.8,134.1,300.8,142.2 L300.8,142.2z"/> <path class="st2" d="M428.5,142.8c8,8.1,12.4,18.8,12.3,30.2c0,11.3-4.5,22-12.6,30.1c-8.1,8-18.8,12.4-30.2,12.3 c-11.3,0-22-4.5-30.1-12.6c-8-8.1-12.4-18.8-12.3-30.2c0.1-23.5,19.3-42.5,42.8-42.4C409.9,130.3,420.5,134.8,428.5,142.8 L428.5,142.8z"/> </g> <g> <path class="st3" d="M217.4,172c0,14.2,5.4,27.6,15.5,37.8c10,10.1,23.3,15.7,37.5,15.7c14.1,0.1,27.6-5.4,37.7-15.4 s15.7-23.4,15.7-37.5c0-14.2-5.4-27.6-15.4-37.7c-10-10.1-23.3-15.7-37.6-15.8C241.5,118.8,217.5,142.6,217.4,172z M270.7,140.3 c8.8,0.1,16.8,3.6,22.6,9.4c5.8,5.8,9.3,13.8,9.2,22.7c-0.1,17.7-14.4,31.9-32.1,31.8c-8.8,0-16.7-3.7-22.5-9.5s-9.3-13.8-9.3-22.6 C238.7,154.5,253.1,140.2,270.7,140.3z"/> <path class="st3" d="M360.5,210.2c10,10.1,23.3,15.7,37.5,15.7c14.2,0.1,27.6-5.4,37.7-15.4c10.1-10,15.7-23.3,15.7-37.5 c0-14.2-5.4-27.6-15.4-37.7c-10-10.1-23.3-15.7-37.6-15.8c-29.3-0.2-53.3,23.6-53.5,53C345,186.7,350.5,200.1,360.5,210.2z M398.4,140.8c8.8,0.1,16.8,3.6,22.6,9.4c5.8,5.8,9.3,13.8,9.2,22.7c-0.1,17.7-14.4,31.9-32.1,31.8c-8.8,0-16.7-3.7-22.5-9.5 s-9.3-13.8-9.3-22.6C366.5,155,380.8,140.8,398.4,140.8z"/> </g> <path class="st0" d="M121.9,92l-0.6,159c-46.5-18.5-86.5-43.1-117.6-72c-2.2-1.9-3.7-5-3.6-8.1c0-3.1,1.6-6.1,3.6-8 C35.1,134.3,75.4,110.1,121.9,92z"/> </svg>